# xmcd
#
# Track frame offsets:
#	150
#	24679
#	37257
#	57001
#	71593
#	88534
#	106559
#	119966
#	133212
#	145062
#	159023
#	176619
#	190893
#	209617
#	227691
#	245630
#	260628
#	278393
#	291261
#	306714
#	322800
#	338523
#
# Disc length: 4780 seconds
#
# Revision: 1
# Processed by: cddbd v1.4PL0 Copyright (c) Steve Scherf et al.
# Submitted via: audiograbber 1.82.01
#
DISCID=4912aa16
DTITLE=[Gagarin] - Рок [CD1)
DYEAR=2003
DGENRE=
TTITLE0=Кузьмин - Я люблю тебя очень
TTITLE1=Бутусов - Песня идущего домой
TTITLE2=Барыкин - Нареке
TTITLE3=Кашин - Сердце моряка
TTITLE4=Мумий Троль - Стекла
TTITLE5=Конец Фильма - Кновомуветру
TTITLE6=Магнитная Аномалия - Там
TTITLE7=Точка Росы - Дваветра
TTITLE8=Танцы Минус - Пароль
TTITLE9=Планка - Палец-пистолет
TTITLE10=Фрида - 200 лет погони
TTITLE11=Ночные снайперы - День рождения
TTITLE12=Сплин - Время, назад!
TTITLE13=Смысловые галлюцинации - Утром
TTITLE14=Би-2 - Песок
TTITLE15=Иван Демьян and 7Б - Я любовь
TTITLE16=Сурганова - Больно
TTITLE17=Любаша - Пежо
TTITLE18=Конец фильма - Женщина, с котрой я переспал
TTITLE19=Аквариум - Послезавтра
TTITLE20=Чайф - Уезжаю
TTITLE21=Высокосный год - 16.37
EXTD=
EXTT0=
EXTT1=
EXTT2=
EXTT3=
EXTT4=
EXTT5=
EXTT6=
EXTT7=
EXTT8=
EXTT9=
EXTT10=
EXTT11=
EXTT12=
EXTT13=
EXTT14=
EXTT15=
EXTT16=
EXTT17=
EXTT18=
EXTT19=
EXTT20=
EXTT21=
PLAYORDER=
